PathFileType	4	(X/Y/Z)	TVC_58_BWA_04_walk_RCNL2025.trc
DataRate	CameraRate	NumFrames	NumMarkers	Units	OrigDataRate	OrigDataStartFrame	OrigNumFrames
100	100	6	27	mm	100	328	437
Frame#	Time	R_Shoulder			L_Shoulder			C7			J_Notch			R_Elbow			L_Elbow			R_Wrist			L_Wrist			R_Asis			L_Asis			R_Psis			L_Psis			Sacral			Thoracic			Sternum			R_Thigh_Lateral			R_Knee_Lateral			R_Shank_Lateral			R_Ankle_Lateral			R_Heel			R_Toe			L_Thigh_Lateral			L_Knee_Lateral			L_Shank_Lateral			L_Ankle_Lateral			L_Heel			L_Toe		
		X1	Y1	Z1	X2	Y2	Z2	X3	Y3	Z3	X4	Y4	Z4	X5	Y5	Z5	X6	Y6	Z6	X7	Y7	Z7	X8	Y8	Z8	X9	Y9	Z9	X10	Y10	Z10	X11	Y11	Z11	X12	Y12	Z12	X13	Y13	Z13	X14	Y14	Z14	X15	Y15	Z15	X16	Y16	Z16	X17	Y17	Z17	X18	Y18	Z18	X19	Y19	Z19	X20	Y20	Z20	X21	Y21	Z21	X22	Y22	Z22	X23	Y23	Z23	X24	Y24	Z24	X25	Y25	Z25	X26	Y26	Z26	X27	Y27	Z27
328	3.27000000	1066.834106	1318.854614	-30.177145	1081.290527	1327.025635	-387.956726	1015.966187	1394.168823	-219.157608	1159.734009	1296.879761	-206.598129	992.267944	1006.216797	29.478050	1035.530151	1002.993652	-452.875153	1023.317078	765.550934	86.393978	1146.065552	780.562317	-496.144180	1193.360840	895.673950	-59.917603	1182.106201	877.567139	-372.375854	959.309631	919.029541	-152.298294	954.844055	916.803894	-262.026123	957.076843	917.916718	-207.162209	964.645935	1088.516235	-216.236603	1264.951050	1061.783813	-216.068314	1198.008423	685.354431	25.097744	1280.811279	474.753967	-73.520996	1293.150635	272.618317	-34.549053	1273.660767	66.657692	-122.636742	1218.715942	53.726692	-174.198044	1400.253174	48.287880	-161.238083	1066.813354	640.927307	-446.308228	1047.104248	438.049683	-336.595154	952.306763	269.692261	-389.859314	824.992004	78.486603	-300.177979	780.655396	87.506485	-248.789261	955.193970	42.997112	-273.784515
329	3.28000000	1074.522949	1318.526245	-28.667580	1089.668091	1327.343384	-386.382019	1023.960144	1394.139893	-217.571060	1167.794678	1297.034180	-204.924347	1001.774170	1005.492310	30.712154	1042.450317	1003.538391	-451.217804	1033.221436	764.882019	87.493214	1151.065063	780.424072	-495.474014	1202.287842	896.588867	-58.569344	1191.780151	877.170288	-370.251312	968.164673	918.851868	-151.622116	964.166443	916.206604	-261.563751	966.165558	917.529236	-206.592934	973.179138	1088.327148	-215.408218	1273.729248	1062.443726	-214.317535	1207.273926	686.308289	26.354252	1288.203491	474.237274	-72.100044	1299.415161	272.252716	-33.888481	1275.013672	66.523201	-122.532257	1219.795166	54.469078	-173.967850	1401.595581	47.173977	-161.613617	1076.379272	640.576111	-444.806030	1057.873291	437.170868	-336.220917	958.856506	270.500641	-389.187531	826.914490	82.210014	-300.147766	783.201050	92.655045	-248.581924	955.989380	42.781082	-273.802490
330	3.29000000	1082.180664	1318.411743	-27.136646	1098.065308	1327.895508	-384.774323	1031.940918	1394.274658	-215.964890	1175.841431	1297.374756	-203.216690	1011.330139	1004.943909	31.963205	1049.476807	1004.359802	-449.565826	1043.599030	764.417572	88.574963	1155.929321	780.492004	-494.819275	1211.216919	897.692566	-57.294849	1201.381836	877.149597	-368.159088	977.056885	918.892639	-150.754257	973.429626	915.768860	-260.910339	975.243256	917.330750	-205.832298	981.697449	1088.295898	-214.532822	1282.425293	1063.362915	-212.598999	1216.172607	687.354492	27.748278	1295.390625	473.803650	-70.755623	1304.334595	271.389923	-32.968449	1276.143433	66.470818	-122.355965	1220.714600	55.156685	-173.729691	1402.625366	46.495758	-161.840439	1086.306763	640.505615	-443.390076	1069.453613	436.399323	-336.186401	965.806702	271.725647	-388.882385	829.334595	86.535645	-300.283417	786.401733	98.563248	-248.546753	956.880310	42.476433	-273.838715
331	3.30000000	1089.816406	1318.503174	-25.586535	1106.465088	1328.666016	-383.136841	1039.906128	1394.562500	-214.340454	1183.872070	1297.887939	-201.483612	1020.918823	1004.569275	33.232784	1056.616455	1005.441772	-447.932129	1054.441711	764.158600	89.632324	1160.678955	780.759521	-494.181137	1220.129395	898.954224	-56.077362	1210.873779	877.510742	-366.131348	985.976440	919.145447	-149.687347	982.610779	915.485535	-260.051270	984.293610	917.315491	-204.869308	990.193054	1088.413452	-213.600616	1291.016113	1064.515503	-210.920944	1224.647095	688.390137	29.260374	1302.197266	473.389130	-69.488785	1307.760254	270.043915	-31.849178	1277.034668	66.465202	-122.147255	1221.449097	55.753513	-173.504730	1403.338989	46.139702	-161.975800	1096.575806	640.700562	-442.080841	1081.880127	435.728210	-336.509949	973.170776	273.336029	-388.979645	832.360901	91.482101	-300.622131	790.386292	105.246864	-248.724548	957.859680	42.075371	-273.894531
332	3.31000000	1097.440796	1318.785645	-24.019327	1114.849731	1329.632080	-381.473053	1047.853882	1394.988647	-212.698746	1191.884399	1298.554932	-199.733841	1030.526733	1004.359558	34.524872	1063.869995	1006.758911	-446.328369	1065.737854	764.101379	90.659286	1165.337036	781.213959	-493.559708	1229.006714	900.337280	-54.897186	1220.221802	878.233765	-364.193695	994.909424	919.599548	-148.422760	991.688110	915.347412	-258.982178	993.298767	917.473480	-203.702469	998.658203	1088.667969	-212.603363	1299.486084	1065.863770	-209.287720	1232.672363	689.325378	30.859478	1308.446655	472.942291	-68.264091	1309.868774	268.374817	-30.615154	1277.697876	66.478630	-121.937706	1221.996582	56.241909	-173.305511	1403.767456	45.999077	-162.066528	1107.157104	641.128357	-440.889496	1095.171631	435.147614	-337.183228	980.981384	275.340210	-389.472778	836.108826	97.051521	-301.190094	795.281738	112.695915	-249.142715	958.927979	41.584888	-273.968872
333	3.32000000	1105.065552	1319.238281	-22.437164	1123.201660	1330.764404	-379.786743	1055.782959	1395.536255	-211.040619	1199.876831	1299.353271	-197.976181	1040.144043	1004.300110	35.845516	1071.231201	1008.277832	-444.764557	1077.472107	764.237640	91.650890	1169.928711	781.836823	-492.953857	1237.830933	901.800781	-53.734951	1229.396118	879.273987	-362.363800	1003.838196	920.240112	-146.970673	1000.641785	915.341309	-257.709686	1002.239990	917.790710	-202.340179	1007.084900	1089.045166	-211.534790	1307.828003	1067.360840	-207.701050	1240.252197	690.095581	32.507118	1314.008179	472.432465	-67.034363	1311.074707	266.616394	-29.368111	1278.162842	66.491150	-121.749573	1222.373901	56.620750	-173.137024	1403.965698	45.982700	-162.147675	1118.018066	641.740967	-439.817963	1109.327515	434.647186	-338.170319	989.292847	277.805206	-390.331360	840.695374	103.227760	-301.998962	801.203003	120.872467	-249.813217	960.100769	41.035038	-274.061279
